<?xml version="1.0" encoding="UTF-8" standalone="no"?>
<svg
   xmlns:dc="http://purl.org/dc/elements/1.1/"
   xmlns:cc="http://creativecommons.org/ns#"
   xmlns:rdf="http://www.w3.org/1999/02/22-rdf-syntax-ns#"
   xmlns:svg="http://www.w3.org/2000/svg"
   xmlns="http://www.w3.org/2000/svg"
   enable-background="new"
   id="svg3426"
   height="500"
   width="800"
   version="1.2">
  <defs
     id="defs3428" />
  <metadata
     id="metadata3431">
    <rdf:RDF>
      <cc:Work
         rdf:about="">
        <dc:format>image/svg+xml</dc:format>
        <dc:type
           rdf:resource="http://purl.org/dc/dcmitype/StillImage" />
        <dc:title></dc:title>
        <cc:license
           rdf:resource="http://creativecommons.org/licenses/by-nc-sa/3.0/" />
      </cc:Work>
      <cc:License
         rdf:about="http://creativecommons.org/licenses/by-nc-sa/3.0/">
        <cc:permits
           rdf:resource="http://creativecommons.org/ns#Reproduction" />
        <cc:permits
           rdf:resource="http://creativecommons.org/ns#Distribution" />
        <cc:requires
           rdf:resource="http://creativecommons.org/ns#Notice" />
        <cc:requires
           rdf:resource="http://creativecommons.org/ns#Attribution" />
        <cc:prohibits
           rdf:resource="http://creativecommons.org/ns#CommercialUse" />
        <cc:permits
           rdf:resource="http://creativecommons.org/ns#DerivativeWorks" />
        <cc:requires
           rdf:resource="http://creativecommons.org/ns#ShareAlike" />
      </cc:License>
    </rdf:RDF>
  </metadata>
  <g
     style="display:inline;"
     id="layer1" />
  <g
     transform="translate(-115.68689,-65.004146)"
     id="g3492" />
  <g
     transform="translate(-115.68689,-65.004146)"
     id="g3494" />
  <g
     transform="translate(-115.68689,-65.004146)"
     id="g3496" />
  <g
     transform="translate(-115.68689,-65.004146)"
     id="g3498" />
  <g
     transform="translate(-115.68689,-65.004146)"
     id="g3500" />
  <g
     transform="translate(-115.68689,-65.004146)"
     id="g3502" />
  <g
     transform="translate(-115.68689,-65.004146)"
     id="g3504" />
  <g
     transform="translate(-115.68689,-65.004146)"
     id="g3506" />
  <g
     transform="translate(-115.68689,-65.004146)"
     id="g3508" />
  <g
     transform="translate(-115.68689,-65.004146)"
     id="g3510" />
  <g
     transform="translate(-115.68689,-65.004146)"
     id="g3512" />
  <g
     transform="translate(-115.68689,-65.004146)"
     id="g3514" />
  <g
     transform="translate(-115.68689,-65.004146)"
     id="g3516" />
  <g
     transform="translate(-115.68689,-65.004146)"
     id="g3518" />
  <g
     transform="translate(-115.68689,-65.004146)"
     id="g3520" />
  <g
     id="g5145">
    <rect
       width="18.828247"
       height="40.481831"
       x="69.649956"
       y="240.91039"
       transform="matrix(0.74324564,-0.66901862,0.66924257,0.743044,0,0)"
       id="rect4720"
       style="opacity:0.98000004;fill:#000000;fill-opacity:1;stroke:#000000;stroke-width:3.26845336;stroke-miterlimit:4;stroke-dasharray:none;stroke-opacity:1" />
    <path
       d="m 142.83344,166.06196 c -35.40158,0 -64.396257,31.5317 -67.199557,71.6449 l 134.436997,0 c -2.80332,-40.1132 -31.83585,-71.6449 -67.23744,-71.6449 z"
       id="path3901"
       style="opacity:0.98000004;fill:#000000;fill-opacity:1;stroke:#000000;stroke-width:2.60441375;stroke-miterlimit:4;stroke-dasharray:none;stroke-opacity:1" />
    <rect
       width="128.60555"
       height="137.27222"
       x="-376.46622"
       y="74.216278"
       transform="matrix(0,-1,1,0,0,0)"
       id="rect4059"
       style="opacity:0.98000004;fill:#000000;fill-opacity:1;stroke:#000000;stroke-width:3.1546154;stroke-miterlimit:4;stroke-dasharray:none;stroke-opacity:0" />
    <g
       transform="matrix(1.5398409,0,0,1.5398409,-224.03412,-504.4103)"
       id="g3249"
       style="fill:#ffffff;fill-opacity:1;stroke:#000000;stroke-opacity:0">
      <path
         d="m 230.91463,523.25081 0,14.09325 14.09427,0 0,-14.09325 -14.09427,0 z m -11.74561,-11.74563 26.02538,0 11.56013,11.56013 0,26.02437 -37.58551,0 0,-37.5845"
         id="path3121"
         style="fill:#ffffff;fill-opacity:1;fill-rule:evenodd;stroke:#000000;stroke-opacity:0" />
      <path
         d="m 230.91463,523.25081 0,14.09325 14.09427,0 0,-14.09325 -14.09427,0 z m -11.74561,-11.74563 26.02538,0 11.56013,11.56013 0,26.02437 -37.58551,0 0,-37.5845 z"
         id="path3123"
         style="fill:#ffffff;fill-opacity:1;stroke:#000000;stroke-width:0.70862502;stroke-linecap:butt;stroke-linejoin:miter;stroke-miterlimit:22.92560005;stroke-dasharray:none;stroke-opacity:0" />
    </g>
    <path
       style="fill:none;fill-rule:evenodd;stroke:#000000;stroke-width:27;stroke-linecap:butt;stroke-linejoin:miter;stroke-miterlimit:4;stroke-dasharray:none;stroke-opacity:1"
       id="path3753"
       d="m -236.33427,224.37937 c 4.79953,-41.4239 36.85438,-75.42801 77.33226,-84.33479"
       transform="scale(-1,1)" />
  </g>
</svg>
